<mxfile host="app.diagrams.net" agent="Mozilla/5.0 (Macintosh; Intel Mac OS X 10_15_7) AppleWebKit/537.36 (KHTML, like Gecko) Chrome/133.0.0.0 Safari/537.36" version="26.1.0">
  <diagram name="Page-1" id="dHB0r-c7KoPfAYoB03nf">
    <mxGraphModel dx="1397" dy="1029" grid="1" gridSize="10" guides="1" tooltips="1" connect="1" arrows="1" fold="1" page="1" pageScale="1" pageWidth="827" pageHeight="1169" math="0" shadow="0">
      <root>
        <mxCell id="0" />
        <mxCell id="1" parent="0" />
        <mxCell id="UnkrKOcINklkp5FdKrxt-2" value="Architecture de Contrôle Domotique en Cloud avec Tuya Smart" style="text;strokeColor=none;fillColor=none;html=1;fontSize=24;fontStyle=1;verticalAlign=middle;align=center;" vertex="1" parent="1">
          <mxGeometry x="44" y="40" width="740" height="40" as="geometry" />
        </mxCell>
        <mxCell id="UnkrKOcINklkp5FdKrxt-65" style="edgeStyle=orthogonalEdgeStyle;rounded=0;orthogonalLoop=1;jettySize=auto;html=1;entryX=0.5;entryY=0;entryDx=0;entryDy=0;" edge="1" parent="1" source="UnkrKOcINklkp5FdKrxt-4" target="UnkrKOcINklkp5FdKrxt-18">
          <mxGeometry relative="1" as="geometry" />
        </mxCell>
        <mxCell id="UnkrKOcINklkp5FdKrxt-4" value="" style="rounded=1;whiteSpace=wrap;html=1;fillColor=#dae8fc;strokeColor=#6c8ebf;labelBorderColor=none;" vertex="1" parent="1">
          <mxGeometry x="44" y="120" width="760" height="130" as="geometry" />
        </mxCell>
        <mxCell id="UnkrKOcINklkp5FdKrxt-5" value="Couche Appareils IoT" style="text;html=1;align=center;verticalAlign=middle;whiteSpace=wrap;rounded=0;fontSize=16;" vertex="1" parent="1">
          <mxGeometry x="359" y="130" width="171" height="30" as="geometry" />
        </mxCell>
        <mxCell id="UnkrKOcINklkp5FdKrxt-6" value="Thermostats" style="rounded=1;whiteSpace=wrap;html=1;" vertex="1" parent="1">
          <mxGeometry x="60" y="170" width="110" height="50" as="geometry" />
        </mxCell>
        <mxCell id="UnkrKOcINklkp5FdKrxt-12" value="Capteurs" style="rounded=1;whiteSpace=wrap;html=1;" vertex="1" parent="1">
          <mxGeometry x="180" y="170" width="110" height="50" as="geometry" />
        </mxCell>
        <mxCell id="UnkrKOcINklkp5FdKrxt-13" value="Interrupteurs" style="rounded=1;whiteSpace=wrap;html=1;" vertex="1" parent="1">
          <mxGeometry x="304" y="170" width="110" height="50" as="geometry" />
        </mxCell>
        <mxCell id="UnkrKOcINklkp5FdKrxt-15" value="Prises" style="rounded=1;whiteSpace=wrap;html=1;" vertex="1" parent="1">
          <mxGeometry x="430" y="170" width="110" height="50" as="geometry" />
        </mxCell>
        <mxCell id="UnkrKOcINklkp5FdKrxt-16" value="Éclairage" style="rounded=1;whiteSpace=wrap;html=1;" vertex="1" parent="1">
          <mxGeometry x="550" y="170" width="110" height="50" as="geometry" />
        </mxCell>
        <mxCell id="UnkrKOcINklkp5FdKrxt-17" value="Autres" style="rounded=1;whiteSpace=wrap;html=1;" vertex="1" parent="1">
          <mxGeometry x="674" y="170" width="110" height="50" as="geometry" />
        </mxCell>
        <mxCell id="UnkrKOcINklkp5FdKrxt-18" value="" style="rounded=1;whiteSpace=wrap;html=1;fillColor=#d5e8d4;strokeColor=#82b366;labelBorderColor=none;" vertex="1" parent="1">
          <mxGeometry x="44" y="280" width="760" height="130" as="geometry" />
        </mxCell>
        <mxCell id="UnkrKOcINklkp5FdKrxt-19" value="Couche Edge (Par Immeuble)" style="text;html=1;align=center;verticalAlign=middle;whiteSpace=wrap;rounded=0;fontSize=16;" vertex="1" parent="1">
          <mxGeometry x="329.5" y="290" width="230" height="30" as="geometry" />
        </mxCell>
        <mxCell id="UnkrKOcINklkp5FdKrxt-21" value="Hub Tuya ZigBee" style="rounded=1;whiteSpace=wrap;html=1;" vertex="1" parent="1">
          <mxGeometry x="249" y="330" width="110" height="50" as="geometry" />
        </mxCell>
        <mxCell id="UnkrKOcINklkp5FdKrxt-22" value="Raspberry Pi Edge" style="rounded=1;whiteSpace=wrap;html=1;" vertex="1" parent="1">
          <mxGeometry x="369" y="330" width="110" height="50" as="geometry" />
        </mxCell>
        <mxCell id="UnkrKOcINklkp5FdKrxt-23" value="Base de données locale" style="rounded=1;whiteSpace=wrap;html=1;" vertex="1" parent="1">
          <mxGeometry x="490" y="330" width="110" height="50" as="geometry" />
        </mxCell>
        <mxCell id="UnkrKOcINklkp5FdKrxt-30" value="" style="rounded=1;whiteSpace=wrap;html=1;fillColor=#dae8fc;strokeColor=#6c8ebf;labelBorderColor=none;" vertex="1" parent="1">
          <mxGeometry x="34" y="440" width="760" height="130" as="geometry" />
        </mxCell>
        <mxCell id="UnkrKOcINklkp5FdKrxt-31" value="Couche Réseau" style="text;html=1;align=center;verticalAlign=middle;whiteSpace=wrap;rounded=0;fontSize=16;" vertex="1" parent="1">
          <mxGeometry x="349" y="450" width="171" height="30" as="geometry" />
        </mxCell>
        <mxCell id="UnkrKOcINklkp5FdKrxt-33" value="Internet" style="rounded=1;whiteSpace=wrap;html=1;" vertex="1" parent="1">
          <mxGeometry x="249" y="490" width="110" height="50" as="geometry" />
        </mxCell>
        <mxCell id="UnkrKOcINklkp5FdKrxt-34" value="MQTT/TLS" style="rounded=1;whiteSpace=wrap;html=1;" vertex="1" parent="1">
          <mxGeometry x="369" y="490" width="110" height="50" as="geometry" />
        </mxCell>
        <mxCell id="UnkrKOcINklkp5FdKrxt-35" value="HTTPS" style="rounded=1;whiteSpace=wrap;html=1;" vertex="1" parent="1">
          <mxGeometry x="490" y="490" width="110" height="50" as="geometry" />
        </mxCell>
        <mxCell id="UnkrKOcINklkp5FdKrxt-70" style="edgeStyle=orthogonalEdgeStyle;rounded=0;orthogonalLoop=1;jettySize=auto;html=1;entryX=0.5;entryY=0;entryDx=0;entryDy=0;" edge="1" parent="1" source="UnkrKOcINklkp5FdKrxt-38" target="UnkrKOcINklkp5FdKrxt-52">
          <mxGeometry relative="1" as="geometry" />
        </mxCell>
        <mxCell id="UnkrKOcINklkp5FdKrxt-38" value="" style="rounded=1;whiteSpace=wrap;html=1;fillColor=#e1d5e7;strokeColor=#9673a6;labelBorderColor=none;" vertex="1" parent="1">
          <mxGeometry x="34" y="600" width="760" height="170" as="geometry" />
        </mxCell>
        <mxCell id="UnkrKOcINklkp5FdKrxt-39" value="Couche Cloud" style="text;html=1;align=center;verticalAlign=middle;whiteSpace=wrap;rounded=0;fontSize=16;" vertex="1" parent="1">
          <mxGeometry x="349" y="610" width="171" height="30" as="geometry" />
        </mxCell>
        <mxCell id="UnkrKOcINklkp5FdKrxt-40" value="API Gateway" style="rounded=1;whiteSpace=wrap;html=1;" vertex="1" parent="1">
          <mxGeometry x="80" y="640" width="110" height="50" as="geometry" />
        </mxCell>
        <mxCell id="UnkrKOcINklkp5FdKrxt-41" value="API Tuya Cloud" style="rounded=1;whiteSpace=wrap;html=1;" vertex="1" parent="1">
          <mxGeometry x="80" y="700" width="110" height="50" as="geometry" />
        </mxCell>
        <mxCell id="UnkrKOcINklkp5FdKrxt-42" value="" style="rounded=1;whiteSpace=wrap;html=1;" vertex="1" parent="1">
          <mxGeometry x="264" y="650" width="266" height="110" as="geometry" />
        </mxCell>
        <mxCell id="UnkrKOcINklkp5FdKrxt-43" value="Authentification" style="rounded=1;whiteSpace=wrap;html=1;" vertex="1" parent="1">
          <mxGeometry x="280" y="700" width="110" height="50" as="geometry" />
        </mxCell>
        <mxCell id="UnkrKOcINklkp5FdKrxt-44" value="Alertes" style="rounded=1;whiteSpace=wrap;html=1;" vertex="1" parent="1">
          <mxGeometry x="400" y="700" width="110" height="50" as="geometry" />
        </mxCell>
        <mxCell id="UnkrKOcINklkp5FdKrxt-46" value="Microservices" style="text;html=1;align=center;verticalAlign=middle;whiteSpace=wrap;rounded=0;fontSize=14;" vertex="1" parent="1">
          <mxGeometry x="352" y="660" width="90" height="30" as="geometry" />
        </mxCell>
        <mxCell id="UnkrKOcINklkp5FdKrxt-47" value="" style="rounded=1;whiteSpace=wrap;html=1;" vertex="1" parent="1">
          <mxGeometry x="570" y="650" width="204" height="110" as="geometry" />
        </mxCell>
        <mxCell id="UnkrKOcINklkp5FdKrxt-48" value="Stockage" style="text;html=1;align=center;verticalAlign=middle;whiteSpace=wrap;rounded=0;fontSize=14;" vertex="1" parent="1">
          <mxGeometry x="650" y="660" width="60" height="30" as="geometry" />
        </mxCell>
        <mxCell id="UnkrKOcINklkp5FdKrxt-49" value="InfluxDB" style="rounded=1;whiteSpace=wrap;html=1;" vertex="1" parent="1">
          <mxGeometry x="580" y="700" width="80" height="50" as="geometry" />
        </mxCell>
        <mxCell id="UnkrKOcINklkp5FdKrxt-50" value="Redis" style="rounded=1;whiteSpace=wrap;html=1;" vertex="1" parent="1">
          <mxGeometry x="680" y="700" width="84" height="50" as="geometry" />
        </mxCell>
        <mxCell id="UnkrKOcINklkp5FdKrxt-52" value="" style="rounded=1;whiteSpace=wrap;html=1;fillColor=#f8cecc;strokeColor=#b85450;labelBorderColor=none;" vertex="1" parent="1">
          <mxGeometry x="34" y="800" width="760" height="130" as="geometry" />
        </mxCell>
        <mxCell id="UnkrKOcINklkp5FdKrxt-53" value="Couche Applications" style="text;html=1;align=center;verticalAlign=middle;whiteSpace=wrap;rounded=0;fontSize=16;" vertex="1" parent="1">
          <mxGeometry x="333.5" y="810" width="161" height="30" as="geometry" />
        </mxCell>
        <mxCell id="UnkrKOcINklkp5FdKrxt-59" value="Dashboard" style="rounded=1;whiteSpace=wrap;html=1;" vertex="1" parent="1">
          <mxGeometry x="70" y="860" width="110" height="50" as="geometry" />
        </mxCell>
        <mxCell id="UnkrKOcINklkp5FdKrxt-60" value="App Mobile" style="rounded=1;whiteSpace=wrap;html=1;" vertex="1" parent="1">
          <mxGeometry x="210" y="860" width="110" height="50" as="geometry" />
        </mxCell>
        <mxCell id="UnkrKOcINklkp5FdKrxt-61" value="Admin" style="rounded=1;whiteSpace=wrap;html=1;" vertex="1" parent="1">
          <mxGeometry x="359" y="860" width="110" height="50" as="geometry" />
        </mxCell>
        <mxCell id="UnkrKOcINklkp5FdKrxt-62" value="Alertes" style="rounded=1;whiteSpace=wrap;html=1;" vertex="1" parent="1">
          <mxGeometry x="510" y="860" width="110" height="50" as="geometry" />
        </mxCell>
        <mxCell id="UnkrKOcINklkp5FdKrxt-63" value="Assistants Vocaux" style="rounded=1;whiteSpace=wrap;html=1;" vertex="1" parent="1">
          <mxGeometry x="650" y="860" width="110" height="50" as="geometry" />
        </mxCell>
        <mxCell id="UnkrKOcINklkp5FdKrxt-68" style="edgeStyle=orthogonalEdgeStyle;rounded=0;orthogonalLoop=1;jettySize=auto;html=1;entryX=0.513;entryY=-0.023;entryDx=0;entryDy=0;entryPerimeter=0;" edge="1" parent="1" source="UnkrKOcINklkp5FdKrxt-18" target="UnkrKOcINklkp5FdKrxt-30">
          <mxGeometry relative="1" as="geometry" />
        </mxCell>
        <mxCell id="UnkrKOcINklkp5FdKrxt-69" style="edgeStyle=orthogonalEdgeStyle;rounded=0;orthogonalLoop=1;jettySize=auto;html=1;entryX=0.5;entryY=-0.019;entryDx=0;entryDy=0;entryPerimeter=0;" edge="1" parent="1" source="UnkrKOcINklkp5FdKrxt-30" target="UnkrKOcINklkp5FdKrxt-38">
          <mxGeometry relative="1" as="geometry" />
        </mxCell>
      </root>
    </mxGraphModel>
  </diagram>
</mxfile>
